<?xml version="1.0" encoding="UTF-8" standalone="no"?>
<!DOCTYPE svg PUBLIC "-//W3C//DTD SVG 1.1//EN"
 "http://www.w3.org/Graphics/SVG/1.1/DTD/svg11.dtd">
<!-- Generated by graphviz version 15.0.0 (20260523.1842)
 -->
<!-- Title: Mini E&#45;commerce DevOps Platform &#45; AWS EKS Architecture Pages: 1 -->
<svg width="8156pt" height="5222pt"
 viewBox="0.00 0.00 8156.00 5222.00" xmlns="http://www.w3.org/2000/svg" xmlns:xlink="http://www.w3.org/1999/xlink">
<g id="graph0" class="graph" transform="scale(2.36111 2.36111) rotate(0) translate(46.8 2164.8)">
<title>Mini E&#45;commerce DevOps Platform &#45; AWS EKS Architecture</title>
<polygon fill="#f8fafc" stroke="none" points="-46.8,46.8 -46.8,-2164.8 3407.7,-2164.8 3407.7,46.8 -46.8,46.8"/>
<text xml:space="preserve" text-anchor="middle" x="1680.45" y="-8.2" font-family="Helvetica,sans-Serif" font-weight="bold" font-size="24.00" fill="#2d3436">Mini E&#45;commerce DevOps Platform &#45; AWS EKS Architecture</text>
<g id="clust1" class="cluster">
<title>cluster_Developer / Workstation (outside AWS)</title>
<path fill="#f8fafc" stroke="#aeb6be" stroke-width="2" d="M60,-1855C60,-1855 411.35,-1855 411.35,-1855 417.35,-1855 423.35,-1861 423.35,-1867 423.35,-1867 423.35,-2052 423.35,-2052 423.35,-2058 417.35,-2064 411.35,-2064 411.35,-2064 60,-2064 60,-2064 54,-2064 48,-2058 48,-2052 48,-2052 48,-1867 48,-1867 48,-1861 54,-1855 60,-1855"/>
<text xml:space="preserve" text-anchor="middle" x="214.25" y="-2043.85" font-family="Helvetica,sans-Serif" font-weight="bold" font-size="17.00" fill="#2d3436">Developer / Workstation (outside AWS)</text>
</g>
<g id="clust2" class="cluster">
<title>cluster_GitHub (outside AWS)</title>
<path fill="#f1f5f9" stroke="#aeb6be" stroke-width="2" d="M596.15,-1699C596.15,-1699 1165.55,-1699 1165.55,-1699 1171.55,-1699 1177.55,-1705 1177.55,-1711 1177.55,-1711 1177.55,-2098 1177.55,-2098 1177.55,-2104 1171.55,-2110 1165.55,-2110 1165.55,-2110 596.15,-2110 596.15,-2110 590.15,-2110 584.15,-2104 584.15,-2098 584.15,-2098 584.15,-1711 584.15,-1711 584.15,-1705 590.15,-1699 596.15,-1699"/>
<text xml:space="preserve" text-anchor="middle" x="680.65" y="-2089.85" font-family="Helvetica,sans-Serif" font-weight="bold" font-size="17.00" fill="#2d3436">GitHub (outside AWS)</text>
</g>
<g id="clust3" class="cluster">
<title>cluster_GitHub Actions</title>
<path fill="#ffffff" stroke="#aeb6be" stroke-width="2" stroke-dasharray="5,2" d="M834.73,-1707C834.73,-1707 935.48,-1707 935.48,-1707 941.48,-1707 947.48,-1713 947.48,-1719 947.48,-1719 947.48,-2062 947.48,-2062 947.48,-2068 941.48,-2074 935.48,-2074 935.48,-2074 834.73,-2074 834.73,-2074 828.73,-2074 822.73,-2068 822.73,-2062 822.73,-2062 822.73,-1719 822.73,-1719 822.73,-1713 828.73,-1707 834.73,-1707"/>
<text xml:space="preserve" text-anchor="middle" x="885.1" y="-2055.75" font-family="Helvetica,sans-Serif" font-weight="bold" font-size="15.00" fill="#2d3436">GitHub Actions</text>
</g>
<g id="clust4" class="cluster">
<title>cluster_AWS Cloud</title>
<path fill="#fff7ed" stroke="#aeb6be" stroke-width="2" d="M20,-43C20,-43 3340.9,-43 3340.9,-43 3346.9,-43 3352.9,-49 3352.9,-55 3352.9,-55 3352.9,-1625 3352.9,-1625 3352.9,-1631 3346.9,-1637 3340.9,-1637 3340.9,-1637 20,-1637 20,-1637 14,-1637 8,-1631 8,-1625 8,-1625 8,-55 8,-55 8,-49 14,-43 20,-43"/>
<text xml:space="preserve" text-anchor="middle" x="69.25" y="-1614" font-family="Helvetica,sans-Serif" font-weight="bold" font-size="20.00" fill="#2d3436">AWS Cloud</text>
</g>
<g id="clust5" class="cluster">
<title>cluster_Region: ap&#45;southeast&#45;1</title>
<path fill="#fffbeb" stroke="#aeb6be" stroke-width="2" stroke-dasharray="5,2" d="M28,-51C28,-51 3332.9,-51 3332.9,-51 3338.9,-51 3344.9,-57 3344.9,-63 3344.9,-63 3344.9,-1586 3344.9,-1586 3344.9,-1592 3338.9,-1598 3332.9,-1598 3332.9,-1598 28,-1598 28,-1598 22,-1598 16,-1592 16,-1586 16,-1586 16,-63 16,-63 16,-57 22,-51 28,-51"/>
<text xml:space="preserve" text-anchor="middle" x="127.12" y="-1575.95" font-family="Helvetica,sans-Serif" font-weight="bold" font-size="19.00" fill="#2d3436">Region: ap&#45;southeast&#45;1</text>
</g>
<g id="clust6" class="cluster">
<title>cluster_Regional services</title>
<path fill="#f5f3ff" stroke="#aeb6be" stroke-width="2" stroke-dasharray="5,2" d="M838.2,-59C838.2,-59 1872.2,-59 1872.2,-59 1878.2,-59 1884.2,-65 1884.2,-71 1884.2,-71 1884.2,-256 1884.2,-256 1884.2,-262 1878.2,-268 1872.2,-268 1872.2,-268 838.2,-268 838.2,-268 832.2,-268 826.2,-262 826.2,-256 826.2,-256 826.2,-71 826.2,-71 826.2,-65 832.2,-59 838.2,-59"/>
<text xml:space="preserve" text-anchor="middle" x="902.45" y="-248.8" font-family="Helvetica,sans-Serif" font-weight="bold" font-size="16.00" fill="#2d3436">Regional services</text>
</g>
<g id="clust7" class="cluster">
<title>cluster_VPC: 10.0.0.0/16</title>
<path fill="#eff6ff" stroke="#aeb6be" stroke-width="2" d="M36,-276C36,-276 3324.9,-276 3324.9,-276 3330.9,-276 3336.9,-282 3336.9,-288 3336.9,-288 3336.9,-1531 3336.9,-1531 3336.9,-1537 3330.9,-1543 3324.9,-1543 3324.9,-1543 36,-1543 36,-1543 30,-1543 24,-1537 24,-1531 24,-1531 24,-288 24,-288 24,-282 30,-276 36,-276"/>
<text xml:space="preserve" text-anchor="middle" x="100.62" y="-1521.9" font-family="Helvetica,sans-Serif" font-weight="bold" font-size="18.00" fill="#2d3436">VPC: 10.0.0.0/16</text>
</g>
<g id="clust8" class="cluster">
<title>cluster_Public Subnet (2 AZ) &#45; Internet&#45;facing</title>
<path fill="#ecfdf5" stroke="#aeb6be" stroke-width="2" d="M596.15,-1211C596.15,-1211 1165.55,-1211 1165.55,-1211 1171.55,-1211 1177.55,-1217 1177.55,-1223 1177.55,-1223 1177.55,-1408 1177.55,-1408 1177.55,-1414 1171.55,-1420 1165.55,-1420 1165.55,-1420 596.15,-1420 596.15,-1420 590.15,-1420 584.15,-1414 584.15,-1408 584.15,-1408 584.15,-1223 584.15,-1223 584.15,-1217 590.15,-1211 596.15,-1211"/>
<text xml:space="preserve" text-anchor="middle" x="732.4" y="-1400.8" font-family="Helvetica,sans-Serif" font-weight="bold" font-size="16.00" fill="#2d3436">Public Subnet (2 AZ) &#45; Internet&#45;facing</text>
</g>
<g id="clust9" class="cluster">
<title>cluster_Private Subnet (2 AZ) &#45; EKS workloads</title>
<path fill="#f5f3ff" stroke="#aeb6be" stroke-width="2" d="M44,-284C44,-284 2912.65,-284 2912.65,-284 2918.65,-284 2924.65,-290 2924.65,-296 2924.65,-296 2924.65,-1191 2924.65,-1191 2924.65,-1197 2918.65,-1203 2912.65,-1203 2912.65,-1203 44,-1203 44,-1203 38,-1203 32,-1197 32,-1191 32,-1191 32,-296 32,-296 32,-290 38,-284 44,-284"/>
<text xml:space="preserve" text-anchor="middle" x="185.5" y="-1183.8" font-family="Helvetica,sans-Serif" font-weight="bold" font-size="16.00" fill="#2d3436">Private Subnet (2 AZ) &#45; EKS workloads</text>
</g>
<g id="clust10" class="cluster">
<title>cluster_EKS: mini&#45;ecommerce&#45;devops v1.30</title>
<path fill="#f0fdf4" stroke="#aeb6be" stroke-width="2" d="M52,-292C52,-292 2904.65,-292 2904.65,-292 2910.65,-292 2916.65,-298 2916.65,-304 2916.65,-304 2916.65,-1156 2916.65,-1156 2916.65,-1162 2910.65,-1168 2904.65,-1168 2904.65,-1168 52,-1168 52,-1168 46,-1168 40,-1162 40,-1156 40,-1156 40,-304 40,-304 40,-298 46,-292 52,-292"/>
<text xml:space="preserve" text-anchor="middle" x="196.12" y="-1147.85" font-family="Helvetica,sans-Serif" font-weight="bold" font-size="17.00" fill="#2d3436">EKS: mini&#45;ecommerce&#45;devops v1.30</text>
</g>
<g id="clust11" class="cluster">
<title>cluster_Platform add&#45;ons</title>
<path fill="#ecfdf5" stroke="#aeb6be" stroke-width="2" stroke-dasharray="5,2" d="M60,-300C60,-300 1389.6,-300 1389.6,-300 1395.6,-300 1401.6,-306 1401.6,-312 1401.6,-312 1401.6,-714 1401.6,-714 1401.6,-720 1395.6,-726 1389.6,-726 1389.6,-726 60,-726 60,-726 54,-726 48,-720 48,-714 48,-714 48,-312 48,-312 48,-306 54,-300 60,-300"/>
<text xml:space="preserve" text-anchor="middle" x="117.88" y="-707.75" font-family="Helvetica,sans-Serif" font-weight="bold" font-size="15.00" fill="#2d3436">Platform add&#45;ons</text>
</g>
<g id="clust12" class="cluster">
<title>cluster_namespace: boutique</title>
<path fill="#ffffff" stroke="#aeb6be" stroke-width="2" d="M1540.35,-586C1540.35,-586 2896.65,-586 2896.65,-586 2902.65,-586 2908.65,-592 2908.65,-598 2908.65,-598 2908.65,-1120 2908.65,-1120 2908.65,-1126 2902.65,-1132 2896.65,-1132 2896.65,-1132 1540.35,-1132 1540.35,-1132 1534.35,-1132 1528.35,-1126 1528.35,-1120 1528.35,-1120 1528.35,-598 1528.35,-598 1528.35,-592 1534.35,-586 1540.35,-586"/>
<text xml:space="preserve" text-anchor="middle" x="1613.23" y="-1113.75" font-family="Helvetica,sans-Serif" font-weight="bold" font-size="15.00" fill="#2d3436">namespace: boutique</text>
</g>
<g id="clust13" class="cluster">
<title>cluster_namespace: observability</title>
<path fill="#fff7ed" stroke="#aeb6be" stroke-width="2" d="M60,-736C60,-736 411.35,-736 411.35,-736 417.35,-736 423.35,-742 423.35,-748 423.35,-748 423.35,-1120 423.35,-1120 423.35,-1126 417.35,-1132 411.35,-1132 411.35,-1132 60,-1132 60,-1132 54,-1132 48,-1126 48,-1120 48,-1120 48,-748 48,-748 48,-742 54,-736 60,-736"/>
<text xml:space="preserve" text-anchor="middle" x="147.88" y="-1113.75" font-family="Helvetica,sans-Serif" font-weight="bold" font-size="15.00" fill="#2d3436">namespace: observability</text>
</g>
<g id="clust14" class="cluster">
<title>cluster_Database Subnet Group (private) &#45; platform data</title>
<path fill="#fef3c7" stroke="#aeb6be" stroke-width="2" d="M2959.65,-586C2959.65,-586 3316.9,-586 3316.9,-586 3322.9,-586 3328.9,-592 3328.9,-598 3328.9,-598 3328.9,-783 3328.9,-783 3328.9,-789 3322.9,-795 3316.9,-795 3316.9,-795 2959.65,-795 2959.65,-795 2953.65,-795 2947.65,-789 2947.65,-783 2947.65,-783 2947.65,-598 2947.65,-598 2947.65,-592 2953.65,-586 2959.65,-586"/>
<text xml:space="preserve" text-anchor="middle" x="3138.28" y="-775.8" font-family="Helvetica,sans-Serif" font-weight="bold" font-size="16.00" fill="#2d3436">Database Subnet Group (private) &#45; platform data</text>
</g>
<!-- 0c7db9a50a934b978aef724e6bd6ab7f -->
<g id="node1" class="node">
<title>0c7db9a50a934b978aef724e6bd6ab7f</title>
<image xlink:href="C:\Users\Hi\AppData\Roaming\Python\Python314\site-packages\resources/onprem/client\user.png" width="100.8px" height="100.8px" preserveAspectRatio="xMinYMin meet" x="56" y="-1810.8"/>
<text xml:space="preserve" text-anchor="middle" x="106.4" y="-1663.4" font-family="Helvetica,sans-Serif" font-weight="bold" font-size="14.00" fill="#2d3436">End user</text>
<text xml:space="preserve" text-anchor="middle" x="106.4" y="-1647.65" font-family="Helvetica,sans-Serif" font-weight="bold" font-size="14.00" fill="#2d3436">browser</text>
</g>
<!-- 1e13aefd76014dd4b0c5d85eb046a287 -->
<g id="node2" class="node">
<title>1e13aefd76014dd4b0c5d85eb046a287</title>
<image xlink:href="C:\Users\Hi\AppData\Roaming\Python\Python314\site-packages\resources/onprem/client\user.png" width="100.8px" height="100.8px" preserveAspectRatio="xMinYMin meet" x="314.55" y="-1999.4"/>
<text xml:space="preserve" text-anchor="middle" x="364.95" y="-1865.05" font-family="Helvetica,sans-Serif" font-weight="bold" font-size="14.00" fill="#2d3436">Developer</text>
</g>
<!-- 0c7db9a50a934b978aef724e6bd6ab7f&#45;&gt;1e13aefd76014dd4b0c5d85eb046a287 -->
<!-- 8109dfc7e8ec450189bb4e32ca9c8e13 -->
<g id="node31" class="node">
<title>8109dfc7e8ec450189bb4e32ca9c8e13</title>
<image xlink:href="C:\Users\Hi\AppData\Roaming\Python\Python314\site-packages\resources/onprem/network\internet.png" width="100.8px" height="100.8px" preserveAspectRatio="xMinYMin meet" x="453.35" y="-1788.4"/>
<text xml:space="preserve" text-anchor="middle" x="503.75" y="-1654.05" font-family="Helvetica,sans-Serif" font-weight="bold" font-size="14.00" fill="#2d3436">Internet</text>
</g>
<!-- 0c7db9a50a934b978aef724e6bd6ab7f&#45;&gt;8109dfc7e8ec450189bb4e32ca9c8e13 -->
<g id="edge17" class="edge">
<title>0c7db9a50a934b978aef724e6bd6ab7f&#45;&gt;8109dfc7e8ec450189bb4e32ca9c8e13</title>
<path fill="none" stroke="#1f6feb" stroke-width="2.8" d="M156.72,-1720C156.72,-1720 441.78,-1720 441.78,-1720"/>
<polygon fill="#1f6feb" stroke="#1f6feb" stroke-width="2.8" points="441.78,-1722.63 449.28,-1720 441.78,-1717.38 441.78,-1722.63"/>
<text xml:space="preserve" text-anchor="middle" x="235.68" y="-1728.15" font-family="Sans-Serif" font-size="13.00" fill="#2d3436">1.1 HTTP :80</text>
</g>
<!-- d430c46407614e80841ce315ba79962c -->
<g id="node4" class="node">
<title>d430c46407614e80841ce315ba79962c</title>
<image xlink:href="C:\Users\Hi\AppData\Roaming\Python\Python314\site-packages\resources/onprem/vcs\github.png" width="100.8px" height="100.8px" preserveAspectRatio="xMinYMin meet" x="592.15" y="-2013.8"/>
<text xml:space="preserve" text-anchor="middle" x="642.55" y="-1866.4" font-family="Helvetica,sans-Serif" font-weight="bold" font-size="14.00" fill="#2d3436">App repo</text>
<text xml:space="preserve" text-anchor="middle" x="642.55" y="-1850.65" font-family="Helvetica,sans-Serif" font-weight="bold" font-size="14.00" fill="#2d3436">source + infra</text>
</g>
<!-- 1e13aefd76014dd4b0c5d85eb046a287&#45;&gt;d430c46407614e80841ce315ba79962c -->
<!-- 1e13aefd76014dd4b0c5d85eb046a287&#45;&gt;d430c46407614e80841ce315ba79962c -->
<g id="edge29" class="edge">
<title>1e13aefd76014dd4b0c5d85eb046a287&#45;&gt;d430c46407614e80841ce315ba79962c</title>
<path fill="none" stroke="#bf2a8a" stroke-width="2.4" d="M415.22,-1953.8C415.22,-1953.8 581.05,-1953.8 581.05,-1953.8"/>
<polygon fill="#bf2a8a" stroke="#bf2a8a" stroke-width="2.4" points="581.05,-1956.43 588.55,-1953.8 581.05,-1951.18 581.05,-1956.43"/>
<text xml:space="preserve" text-anchor="middle" x="503.75" y="-2019.15" font-family="Sans-Serif" font-size="13.00" fill="#2d3436">2.1 push</text>
</g>
<!-- 8c2d8a7b85754011b588221afef68d48 -->
<g id="node3" class="node">
<title>8c2d8a7b85754011b588221afef68d48</title>
<image xlink:href="C:\Users\Hi\AppData\Roaming\Python\Python314\site-packages\resources/generic/blank\blank.png" width="100.8px" height="100.8px" preserveAspectRatio="xMinYMin meet" x="56" y="-2028.8"/>
<text xml:space="preserve" text-anchor="middle" x="106.4" y="-1881.4" font-family="Helvetica,sans-Serif" font-weight="bold" font-size="14.00" fill="#2d3436">Terraform CLI</text>
<text xml:space="preserve" text-anchor="middle" x="106.4" y="-1865.65" font-family="Helvetica,sans-Serif" font-weight="bold" font-size="14.00" fill="#2d3436">manual apply</text>
</g>
<!-- 17d517dcfc924fad9a44355a8136f659 -->
<g id="node6" class="node">
<title>17d517dcfc924fad9a44355a8136f659</title>
<image xlink:href="C:\Users\Hi\AppData\Roaming\Python\Python314\site-packages\resources/onprem/ci\github-actions.png" width="100.8px" height="100.8px" preserveAspectRatio="xMinYMin meet" x="834.2" y="-1851.4"/>
<text xml:space="preserve" text-anchor="middle" x="884.6" y="-1717.05" font-family="Helvetica,sans-Serif" font-weight="bold" font-size="14.00" fill="#2d3436">ci&#45;build&#45;push</text>
</g>
<!-- d430c46407614e80841ce315ba79962c&#45;&gt;17d517dcfc924fad9a44355a8136f659 -->
<g id="edge30" class="edge">
<title>d430c46407614e80841ce315ba79962c&#45;&gt;17d517dcfc924fad9a44355a8136f659</title>
<path fill="none" stroke="#bf2a8a" stroke-width="2" stroke-dasharray="5,2" d="M692.77,-1862.1C763.75,-1862.1 884.9,-1862.1 884.9,-1862.1 884.9,-1862.1 884.9,-1861 884.9,-1861"/>
<polygon fill="#bf2a8a" stroke="#bf2a8a" stroke-width="2" points="887.53,-1861.63 884.9,-1854.13 882.28,-1861.63 887.53,-1861.63"/>
<text xml:space="preserve" text-anchor="middle" x="763.58" y="-1834.15" font-family="Sans-Serif" font-size="13.00" fill="#2d3436">2.2 src/**</text>
</g>
<!-- 714588134a8849ba9f9cd67c157bad1d -->
<g id="node7" class="node">
<title>714588134a8849ba9f9cd67c157bad1d</title>
<image xlink:href="C:\Users\Hi\AppData\Roaming\Python\Python314\site-packages\resources/onprem/ci\github-actions.png" width="100.8px" height="100.8px" preserveAspectRatio="xMinYMin meet" x="834.2" y="-2040.4"/>
<text xml:space="preserve" text-anchor="middle" x="884.6" y="-1906.05" font-family="Helvetica,sans-Serif" font-weight="bold" font-size="14.00" fill="#2d3436">terraform&#45;plan</text>
</g>
<!-- d430c46407614e80841ce315ba79962c&#45;&gt;714588134a8849ba9f9cd67c157bad1d -->
<g id="edge31" class="edge">
<title>d430c46407614e80841ce315ba79962c&#45;&gt;714588134a8849ba9f9cd67c157bad1d</title>
<path fill="none" stroke="#6f6f6f" stroke-width="2" stroke-dasharray="5,2" d="M692.7,-1958.7C692.7,-1958.7 823.98,-1958.7 823.98,-1958.7"/>
<polygon fill="#6f6f6f" stroke="#6f6f6f" stroke-width="2" points="823.98,-1961.33 831.48,-1958.7 823.98,-1956.08 823.98,-1961.33"/>
<text xml:space="preserve" text-anchor="middle" x="763.58" y="-1955.15" font-family="Sans-Serif" font-size="13.00" fill="#2d3436">2.2 infra/**</text>
</g>
<!-- 297b4c8642034927a31633332686c4cb -->
<g id="node5" class="node">
<title>297b4c8642034927a31633332686c4cb</title>
<image xlink:href="C:\Users\Hi\AppData\Roaming\Python\Python314\site-packages\resources/onprem/vcs\github.png" width="100.8px" height="100.8px" preserveAspectRatio="xMinYMin meet" x="1068.75" y="-1872.8"/>
<text xml:space="preserve" text-anchor="middle" x="1119.15" y="-1725.4" font-family="Helvetica,sans-Serif" font-weight="bold" font-size="14.00" fill="#2d3436">GitOps repo</text>
<text xml:space="preserve" text-anchor="middle" x="1119.15" y="-1709.65" font-family="Helvetica,sans-Serif" font-weight="bold" font-size="14.00" fill="#2d3436">Kustomize</text>
</g>
<!-- c213c09ff78140b5855db29cf1841d3b -->
<g id="node17" class="node">
<title>c213c09ff78140b5855db29cf1841d3b</title>
<image xlink:href="C:\Users\Hi\AppData\Roaming\Python\Python314\site-packages\resources/onprem/gitops\argocd.png" width="100.8px" height="100.8px" preserveAspectRatio="xMinYMin meet" x="1292.8" y="-692.4"/>
<text xml:space="preserve" text-anchor="middle" x="1343.2" y="-558.05" font-family="Helvetica,sans-Serif" font-weight="bold" font-size="14.00" fill="#2d3436">Argo CD</text>
</g>
<!-- 297b4c8642034927a31633332686c4cb&#45;&gt;c213c09ff78140b5855db29cf1841d3b -->
<g id="edge34" class="edge">
<title>297b4c8642034927a31633332686c4cb&#45;&gt;c213c09ff78140b5855db29cf1841d3b</title>
<path fill="none" stroke="#198038" stroke-width="2.4" stroke-dasharray="1,5" d="M1169.47,-1790C1199.13,-1790 1230.9,-1790 1230.9,-1790 1230.9,-1790 1230.9,-623.7 1230.9,-623.7 1230.9,-623.7 1281.83,-623.7 1281.83,-623.7"/>
<polygon fill="#198038" stroke="#198038" stroke-width="2.4" points="1281.83,-626.33 1289.33,-623.7 1281.83,-621.08 1281.83,-626.33"/>
<text xml:space="preserve" text-anchor="middle" x="1231.18" y="-1566.15" font-family="Sans-Serif" font-size="13.00" fill="#2d3436">2.5 sync</text>
</g>
<!-- 17d517dcfc924fad9a44355a8136f659&#45;&gt;297b4c8642034927a31633332686c4cb -->
<g id="edge33" class="edge">
<title>17d517dcfc924fad9a44355a8136f659&#45;&gt;297b4c8642034927a31633332686c4cb</title>
<path fill="none" stroke="#bf2a8a" stroke-width="2" stroke-dasharray="5,2" d="M934.92,-1805.8C934.92,-1805.8 1058.39,-1805.8 1058.39,-1805.8"/>
<polygon fill="#bf2a8a" stroke="#bf2a8a" stroke-width="2" points="1058.39,-1808.43 1065.89,-1805.8 1058.39,-1803.18 1058.39,-1808.43"/>
<text xml:space="preserve" text-anchor="middle" x="1001.88" y="-1790.15" font-family="Sans-Serif" font-size="13.00" fill="#2d3436">2.4 PR</text>
</g>
<!-- a66f597132b8468597ca07a4a70c0151 -->
<g id="node9" class="node">
<title>a66f597132b8468597ca07a4a70c0151</title>
<image xlink:href="C:\Users\Hi\AppData\Roaming\Python\Python314\site-packages\resources/aws/compute\ec2-container-registry.png" width="100.8px" height="100.8px" preserveAspectRatio="xMinYMin meet" x="1068.75" y="-232.8"/>
<text xml:space="preserve" text-anchor="middle" x="1119.15" y="-85.4" font-family="Helvetica,sans-Serif" font-weight="bold" font-size="14.00" fill="#2d3436">Amazon ECR</text>
<text xml:space="preserve" text-anchor="middle" x="1119.15" y="-69.65" font-family="Helvetica,sans-Serif" font-weight="bold" font-size="14.00" fill="#2d3436">4 repos</text>
</g>
<!-- 17d517dcfc924fad9a44355a8136f659&#45;&gt;a66f597132b8468597ca07a4a70c0151 -->
<g id="edge32" class="edge">
<title>17d517dcfc924fad9a44355a8136f659&#45;&gt;a66f597132b8468597ca07a4a70c0151</title>
<path fill="none" stroke="#bf2a8a" stroke-width="2.4" d="M934.69,-1760.2C966.57,-1760.2 1001.9,-1760.2 1001.9,-1760.2 1001.9,-1760.2 1001.9,-177.6 1001.9,-177.6 1001.9,-177.6 1057.95,-177.6 1057.95,-177.6"/>
<polygon fill="#bf2a8a" stroke="#bf2a8a" stroke-width="2.4" points="1057.95,-180.23 1065.45,-177.6 1057.95,-174.98 1057.95,-180.23"/>
<text xml:space="preserve" text-anchor="middle" x="1001.88" y="-1660.15" font-family="Sans-Serif" font-size="13.00" fill="#2d3436">2.3 image</text>
</g>
<!-- 1ebab2a3db6e4702a8e8c2edbdec5cbb -->
<g id="node8" class="node">
<title>1ebab2a3db6e4702a8e8c2edbdec5cbb</title>
<image xlink:href="C:\Users\Hi\AppData\Roaming\Python\Python314\site-packages\resources/aws/security\identity-and-access-management-iam-role.png" width="100.8px" height="100.8px" preserveAspectRatio="xMinYMin meet" x="834.2" y="-232.8"/>
<text xml:space="preserve" text-anchor="middle" x="884.6" y="-85.4" font-family="Helvetica,sans-Serif" font-weight="bold" font-size="14.00" fill="#2d3436">IAM OIDC</text>
<text xml:space="preserve" text-anchor="middle" x="884.6" y="-69.65" font-family="Helvetica,sans-Serif" font-weight="bold" font-size="14.00" fill="#2d3436">roles</text>
</g>
<!-- 1ebab2a3db6e4702a8e8c2edbdec5cbb&#45;&gt;a66f597132b8468597ca07a4a70c0151 -->
<!-- 8a93048c103148a7ba26a29c39dc6f53 -->
<g id="node10" class="node">
<title>8a93048c103148a7ba26a29c39dc6f53</title>
<image xlink:href="C:\Users\Hi\AppData\Roaming\Python\Python314\site-packages\resources/aws/storage\simple-storage-service-s3.png" width="100.8px" height="100.8px" preserveAspectRatio="xMinYMin meet" x="1292.8" y="-232.8"/>
<text xml:space="preserve" text-anchor="middle" x="1343.2" y="-85.4" font-family="Helvetica,sans-Serif" font-weight="bold" font-size="14.00" fill="#2d3436">S3 + DynamoDB</text>
<text xml:space="preserve" text-anchor="middle" x="1343.2" y="-69.65" font-family="Helvetica,sans-Serif" font-weight="bold" font-size="14.00" fill="#2d3436">TF state</text>
</g>
<!-- a66f597132b8468597ca07a4a70c0151&#45;&gt;8a93048c103148a7ba26a29c39dc6f53 -->
<!-- b07f38c4bb2b4d0cae7a96da835a9b0b -->
<g id="node16" class="node">
<title>b07f38c4bb2b4d0cae7a96da835a9b0b</title>
<image xlink:href="C:\Users\Hi\AppData\Roaming\Python\Python314\site-packages\resources/aws/compute\elastic-kubernetes-service.png" width="100.8px" height="100.8px" preserveAspectRatio="xMinYMin meet" x="1292.8" y="-1097.8"/>
<text xml:space="preserve" text-anchor="middle" x="1343.2" y="-950.4" font-family="Helvetica,sans-Serif" font-weight="bold" font-size="14.00" fill="#2d3436">Managed node group</text>
<text xml:space="preserve" text-anchor="middle" x="1343.2" y="-934.65" font-family="Helvetica,sans-Serif" font-weight="bold" font-size="14.00" fill="#2d3436">1x m7i&#45;flex.large</text>
</g>
<!-- a66f597132b8468597ca07a4a70c0151&#45;&gt;b07f38c4bb2b4d0cae7a96da835a9b0b -->
<g id="edge36" class="edge">
<title>a66f597132b8468597ca07a4a70c0151&#45;&gt;b07f38c4bb2b4d0cae7a96da835a9b0b</title>
<path fill="none" stroke="#6f6f6f" stroke-width="2" stroke-dasharray="5,2" d="M1128.9,-232.58C1128.9,-443.85 1128.9,-987.4 1128.9,-987.4 1128.9,-987.4 1282.43,-987.4 1282.43,-987.4"/>
<polygon fill="#6f6f6f" stroke="#6f6f6f" stroke-width="2" points="1282.43,-990.03 1289.93,-987.4 1282.43,-984.78 1282.43,-990.03"/>
<text xml:space="preserve" text-anchor="middle" x="1231.18" y="-245.15" font-family="Sans-Serif" font-size="13.00" fill="#2d3436">2.7 pull</text>
</g>
<!-- bd8a9ad3be1349aeadd4fe77fc7fc235 -->
<g id="node11" class="node">
<title>bd8a9ad3be1349aeadd4fe77fc7fc235</title>
<image xlink:href="C:\Users\Hi\AppData\Roaming\Python\Python314\site-packages\resources/aws/security\secrets-manager.png" width="100.8px" height="100.8px" preserveAspectRatio="xMinYMin meet" x="1536.35" y="-232.8"/>
<text xml:space="preserve" text-anchor="middle" x="1586.75" y="-85.4" font-family="Helvetica,sans-Serif" font-weight="bold" font-size="14.00" fill="#2d3436">Secrets Manager</text>
<text xml:space="preserve" text-anchor="middle" x="1586.75" y="-69.65" font-family="Helvetica,sans-Serif" font-weight="bold" font-size="14.00" fill="#2d3436">RDS creds</text>
</g>
<!-- 8a93048c103148a7ba26a29c39dc6f53&#45;&gt;bd8a9ad3be1349aeadd4fe77fc7fc235 -->
<!-- 1be39979d51240cab9946ead1e08188c -->
<g id="node12" class="node">
<title>1be39979d51240cab9946ead1e08188c</title>
<image xlink:href="C:\Users\Hi\AppData\Roaming\Python\Python314\site-packages\resources/aws/management\cloudwatch.png" width="100.8px" height="100.8px" preserveAspectRatio="xMinYMin meet" x="1775.4" y="-232.8"/>
<text xml:space="preserve" text-anchor="middle" x="1825.8" y="-85.4" font-family="Helvetica,sans-Serif" font-weight="bold" font-size="14.00" fill="#2d3436">CloudWatch</text>
<text xml:space="preserve" text-anchor="middle" x="1825.8" y="-69.65" font-family="Helvetica,sans-Serif" font-weight="bold" font-size="14.00" fill="#2d3436">alarms</text>
</g>
<!-- bd8a9ad3be1349aeadd4fe77fc7fc235&#45;&gt;1be39979d51240cab9946ead1e08188c -->
<!-- dc32af20970342e3abeda9a5fb90e441 -->
<g id="node19" class="node">
<title>dc32af20970342e3abeda9a5fb90e441</title>
<image xlink:href="C:\Users\Hi\AppData\Roaming\Python\Python314\site-packages\resources/k8s/ecosystem\helm.png" width="100.8px" height="116.667px" preserveAspectRatio="xMinYMin meet" x="56" y="-691.8"/>
<text xml:space="preserve" text-anchor="middle" x="106.4" y="-544.4" font-family="Helvetica,sans-Serif" font-weight="bold" font-size="14.00" fill="#2d3436">External Secrets</text>
<text xml:space="preserve" text-anchor="middle" x="106.4" y="-528.65" font-family="Helvetica,sans-Serif" font-weight="bold" font-size="14.00" fill="#2d3436">IRSA</text>
</g>
<!-- bd8a9ad3be1349aeadd4fe77fc7fc235&#45;&gt;dc32af20970342e3abeda9a5fb90e441 -->
<g id="edge38" class="edge">
<title>bd8a9ad3be1349aeadd4fe77fc7fc235&#45;&gt;dc32af20970342e3abeda9a5fb90e441</title>
<path fill="none" stroke="#da1e28" stroke-width="2" stroke-dasharray="5,2" d="M1586.9,-232.42C1586.9,-347.11 1586.9,-540.9 1586.9,-540.9 1586.9,-540.9 167.03,-540.9 167.03,-540.9"/>
<polygon fill="#da1e28" stroke="#da1e28" stroke-width="2" points="167.03,-538.28 159.53,-540.9 167.03,-543.53 167.03,-538.28"/>
<text xml:space="preserve" text-anchor="middle" x="884.6" y="-1547.15" font-family="Sans-Serif" font-size="13.00" fill="#2d3436">3.2 sync secret</text>
</g>
<!-- 424550de061045968664508c7b3a1ba7 -->
<g id="node13" class="node">
<title>424550de061045968664508c7b3a1ba7</title>
<image xlink:href="C:\Users\Hi\AppData\Roaming\Python\Python314\site-packages\resources/aws/network\nat-gateway.png" width="100.8px" height="100.8px" preserveAspectRatio="xMinYMin meet" x="592.15" y="-1384.8"/>
<text xml:space="preserve" text-anchor="middle" x="642.55" y="-1237.4" font-family="Helvetica,sans-Serif" font-weight="bold" font-size="14.00" fill="#2d3436">Single NAT</text>
<text xml:space="preserve" text-anchor="middle" x="642.55" y="-1221.65" font-family="Helvetica,sans-Serif" font-weight="bold" font-size="14.00" fill="#2d3436">Gateway</text>
</g>
<!-- 0e3a96ce16844287964ec3001de3aea0 -->
<g id="node14" class="node">
<title>0e3a96ce16844287964ec3001de3aea0</title>
<image xlink:href="C:\Users\Hi\AppData\Roaming\Python\Python314\site-packages\resources/aws/network\internet-gateway.png" width="100.8px" height="100.8px" preserveAspectRatio="xMinYMin meet" x="834.2" y="-1384.8"/>
<text xml:space="preserve" text-anchor="middle" x="884.6" y="-1237.4" font-family="Helvetica,sans-Serif" font-weight="bold" font-size="14.00" fill="#2d3436">Internet</text>
<text xml:space="preserve" text-anchor="middle" x="884.6" y="-1221.65" font-family="Helvetica,sans-Serif" font-weight="bold" font-size="14.00" fill="#2d3436">Gateway</text>
</g>
<!-- 424550de061045968664508c7b3a1ba7&#45;&gt;0e3a96ce16844287964ec3001de3aea0 -->
<!-- 771cb4e6cd634ca5981561893310dd76 -->
<g id="node15" class="node">
<title>771cb4e6cd634ca5981561893310dd76</title>
<image xlink:href="C:\Users\Hi\AppData\Roaming\Python\Python314\site-packages\resources/aws/network\elb-application-load-balancer.png" width="100.8px" height="100.8px" preserveAspectRatio="xMinYMin meet" x="1068.75" y="-1384.8"/>
<text xml:space="preserve" text-anchor="middle" x="1119.15" y="-1237.4" font-family="Helvetica,sans-Serif" font-weight="bold" font-size="14.00" fill="#2d3436">Application</text>
<text xml:space="preserve" text-anchor="middle" x="1119.15" y="-1221.65" font-family="Helvetica,sans-Serif" font-weight="bold" font-size="14.00" fill="#2d3436">Load Balancer</text>
</g>
<!-- 0e3a96ce16844287964ec3001de3aea0&#45;&gt;771cb4e6cd634ca5981561893310dd76 -->
<!-- 0e3a96ce16844287964ec3001de3aea0&#45;&gt;771cb4e6cd634ca5981561893310dd76 -->
<g id="edge19" class="edge">
<title>0e3a96ce16844287964ec3001de3aea0&#45;&gt;771cb4e6cd634ca5981561893310dd76</title>
<path fill="none" stroke="#1f6feb" stroke-width="2.8" d="M934.92,-1274.4C934.92,-1274.4 1057.18,-1274.4 1057.18,-1274.4"/>
<polygon fill="#1f6feb" stroke="#1f6feb" stroke-width="2.8" points="1057.18,-1277.03 1064.68,-1274.4 1057.18,-1271.78 1057.18,-1277.03"/>
<text xml:space="preserve" text-anchor="middle" x="1001.88" y="-1364.15" font-family="Sans-Serif" font-size="13.00" fill="#2d3436">1.3 to ALB</text>
</g>
<!-- 771cb4e6cd634ca5981561893310dd76&#45;&gt;1be39979d51240cab9946ead1e08188c -->
<g id="edge42" class="edge">
<title>771cb4e6cd634ca5981561893310dd76&#45;&gt;1be39979d51240cab9946ead1e08188c</title>
<path fill="none" stroke="#f1620e" stroke-width="2" stroke-dasharray="1,5" d="M1108.9,-1219.41C1108.9,-1079.32 1108.9,-810.2 1108.9,-810.2 1108.9,-810.2 1825.9,-810.2 1825.9,-810.2 1825.9,-810.2 1825.9,-243.14 1825.9,-243.14"/>
<polygon fill="#f1620e" stroke="#f1620e" stroke-width="2" points="1828.53,-243.14 1825.9,-235.64 1823.28,-243.14 1828.53,-243.14"/>
<text xml:space="preserve" text-anchor="middle" x="1464.98" y="-1342.15" font-family="Sans-Serif" font-size="13.00" fill="#2d3436">3.6 ALB 5xx</text>
</g>
<!-- 771cb4e6cd634ca5981561893310dd76&#45;&gt;b07f38c4bb2b4d0cae7a96da835a9b0b -->
<!-- 40c3072461d340bca1b172be775021be -->
<g id="node20" class="node">
<title>40c3072461d340bca1b172be775021be</title>
<image xlink:href="C:\Users\Hi\AppData\Roaming\Python\Python314\site-packages\resources/k8s/network\ing.png" width="100.8px" height="100.8px" preserveAspectRatio="xMinYMin meet" x="1536.35" y="-1048.4"/>
<text xml:space="preserve" text-anchor="middle" x="1586.75" y="-914.05" font-family="Helvetica,sans-Serif" font-weight="bold" font-size="14.00" fill="#2d3436">Ingress</text>
</g>
<!-- 771cb4e6cd634ca5981561893310dd76&#45;&gt;40c3072461d340bca1b172be775021be -->
<g id="edge20" class="edge">
<title>771cb4e6cd634ca5981561893310dd76&#45;&gt;40c3072461d340bca1b172be775021be</title>
<path fill="none" stroke="#1f6feb" stroke-width="2.6" d="M1169.21,-1302C1289.87,-1302 1586.9,-1302 1586.9,-1302 1586.9,-1302 1586.9,-1059.72 1586.9,-1059.72"/>
<polygon fill="#1f6feb" stroke="#1f6feb" stroke-width="2.6" points="1589.53,-1059.72 1586.9,-1052.22 1584.28,-1059.72 1589.53,-1059.72"/>
<text xml:space="preserve" text-anchor="middle" x="1343.2" y="-1209.15" font-family="Sans-Serif" font-size="13.00" fill="#2d3436">1.4 target :8080</text>
</g>
<!-- b07f38c4bb2b4d0cae7a96da835a9b0b&#45;&gt;40c3072461d340bca1b172be775021be -->
<!-- c213c09ff78140b5855db29cf1841d3b&#45;&gt;40c3072461d340bca1b172be775021be -->
<g id="edge35" class="edge">
<title>c213c09ff78140b5855db29cf1841d3b&#45;&gt;40c3072461d340bca1b172be775021be</title>
<path fill="none" stroke="#198038" stroke-width="2.2" stroke-dasharray="1,5" d="M1342.9,-692.34C1342.9,-780.29 1342.9,-921.9 1342.9,-921.9 1342.9,-921.9 1525.69,-921.9 1525.69,-921.9"/>
<polygon fill="#198038" stroke="#198038" stroke-width="2.2" points="1525.69,-924.53 1533.19,-921.9 1525.69,-919.28 1525.69,-924.53"/>
<text xml:space="preserve" text-anchor="middle" x="1464.98" y="-740.15" font-family="Sans-Serif" font-size="13.00" fill="#2d3436">2.6 apply</text>
</g>
<!-- b006c28cd4a2452cb21153379c004e94 -->
<g id="node18" class="node">
<title>b006c28cd4a2452cb21153379c004e94</title>
<image xlink:href="C:\Users\Hi\AppData\Roaming\Python\Python314\site-packages\resources/k8s/ecosystem\helm.png" width="100.8px" height="116.667px" preserveAspectRatio="xMinYMin meet" x="56" y="-473.8"/>
<text xml:space="preserve" text-anchor="middle" x="106.4" y="-326.4" font-family="Helvetica,sans-Serif" font-weight="bold" font-size="14.00" fill="#2d3436">AWS LBC</text>
<text xml:space="preserve" text-anchor="middle" x="106.4" y="-310.65" font-family="Helvetica,sans-Serif" font-weight="bold" font-size="14.00" fill="#2d3436">IRSA</text>
</g>
<!-- b006c28cd4a2452cb21153379c004e94&#45;&gt;771cb4e6cd634ca5981561893310dd76 -->
<g id="edge37" class="edge">
<title>b006c28cd4a2452cb21153379c004e94&#45;&gt;771cb4e6cd634ca5981561893310dd76</title>
<path fill="none" stroke="#6f6f6f" stroke-width="2" stroke-dasharray="5,2" d="M156.47,-391C356.69,-391 1088.9,-391 1088.9,-391 1088.9,-391 1088.9,-1209.02 1088.9,-1209.02"/>
<polygon fill="#6f6f6f" stroke="#6f6f6f" stroke-width="2" points="1086.28,-1209.02 1088.9,-1216.52 1091.53,-1209.02 1086.28,-1209.02"/>
<text xml:space="preserve" text-anchor="middle" x="642.55" y="-1493.15" font-family="Sans-Serif" font-size="13.00" fill="#2d3436">3.1 create ALB</text>
</g>
<!-- abc44b634ffd414c9624111e965040b7 -->
<g id="node21" class="node">
<title>abc44b634ffd414c9624111e965040b7</title>
<image xlink:href="C:\Users\Hi\AppData\Roaming\Python\Python314\site-packages\resources/k8s/network\svc.png" width="100.8px" height="100.8px" preserveAspectRatio="xMinYMin meet" x="1775.4" y="-1004.8"/>
<text xml:space="preserve" text-anchor="middle" x="1825.8" y="-857.4" font-family="Helvetica,sans-Serif" font-weight="bold" font-size="14.00" fill="#2d3436">Service</text>
<text xml:space="preserve" text-anchor="middle" x="1825.8" y="-841.65" font-family="Helvetica,sans-Serif" font-weight="bold" font-size="14.00" fill="#2d3436">frontend:80</text>
</g>
<!-- 40c3072461d340bca1b172be775021be&#45;&gt;abc44b634ffd414c9624111e965040b7 -->
<!-- 40c3072461d340bca1b172be775021be&#45;&gt;abc44b634ffd414c9624111e965040b7 -->
<g id="edge21" class="edge">
<title>40c3072461d340bca1b172be775021be&#45;&gt;abc44b634ffd414c9624111e965040b7</title>
<path fill="none" stroke="#1f6feb" stroke-width="2.2" d="M1636.86,-942.67C1636.86,-942.67 1764.92,-942.67 1764.92,-942.67"/>
<polygon fill="#1f6feb" stroke="#1f6feb" stroke-width="2.2" points="1764.92,-945.29 1772.42,-942.67 1764.92,-940.04 1764.92,-945.29"/>
<text xml:space="preserve" text-anchor="middle" x="1706.28" y="-984.15" font-family="Sans-Serif" font-size="13.00" fill="#2d3436">1.5 Service</text>
</g>
<!-- c5a0392578854fab83742b10a4c82caf -->
<g id="node22" class="node">
<title>c5a0392578854fab83742b10a4c82caf</title>
<image xlink:href="C:\Users\Hi\AppData\Roaming\Python\Python314\site-packages\resources/k8s/compute\pod.png" width="100.8px" height="100.8px" preserveAspectRatio="xMinYMin meet" x="2039.95" y="-946.8"/>
<text xml:space="preserve" text-anchor="middle" x="2090.35" y="-799.4" font-family="Helvetica,sans-Serif" font-weight="bold" font-size="14.00" fill="#2d3436">frontend</text>
<text xml:space="preserve" text-anchor="middle" x="2090.35" y="-783.65" font-family="Helvetica,sans-Serif" font-weight="bold" font-size="14.00" fill="#2d3436">:8080</text>
</g>
<!-- abc44b634ffd414c9624111e965040b7&#45;&gt;c5a0392578854fab83742b10a4c82caf -->
<!-- abc44b634ffd414c9624111e965040b7&#45;&gt;c5a0392578854fab83742b10a4c82caf -->
<g id="edge22" class="edge">
<title>abc44b634ffd414c9624111e965040b7&#45;&gt;c5a0392578854fab83742b10a4c82caf</title>
<path fill="none" stroke="#1f6feb" stroke-width="2" d="M1876.18,-910.93C1876.18,-910.93 2029.63,-910.93 2029.63,-910.93"/>
<polygon fill="#1f6feb" stroke="#1f6feb" stroke-width="2" points="2029.63,-913.56 2037.13,-910.93 2029.63,-908.31 2029.63,-913.56"/>
<text xml:space="preserve" text-anchor="middle" x="1958.08" y="-926.15" font-family="Sans-Serif" font-size="13.00" fill="#2d3436">1.6 HTTP :8080</text>
</g>
<!-- 7b7d55f715564132a30614e685603199 -->
<g id="node23" class="node">
<title>7b7d55f715564132a30614e685603199</title>
<image xlink:href="C:\Users\Hi\AppData\Roaming\Python\Python314\site-packages\resources/k8s/compute\pod.png" width="100.8px" height="100.8px" preserveAspectRatio="xMinYMin meet" x="2276" y="-1097.8"/>
<text xml:space="preserve" text-anchor="middle" x="2326.4" y="-950.4" font-family="Helvetica,sans-Serif" font-weight="bold" font-size="14.00" fill="#2d3436">productcatalog</text>
<text xml:space="preserve" text-anchor="middle" x="2326.4" y="-934.65" font-family="Helvetica,sans-Serif" font-weight="bold" font-size="14.00" fill="#2d3436">:3550</text>
</g>
<!-- c5a0392578854fab83742b10a4c82caf&#45;&gt;7b7d55f715564132a30614e685603199 -->
<g id="edge23" class="edge">
<title>c5a0392578854fab83742b10a4c82caf&#45;&gt;7b7d55f715564132a30614e685603199</title>
<path fill="none" stroke="#6f42c1" stroke-width="2" d="M2140.7,-939.5C2140.7,-939.5 2265.6,-939.5 2265.6,-939.5"/>
<polygon fill="#6f42c1" stroke="#6f42c1" stroke-width="2" points="2265.6,-942.13 2273.1,-939.5 2265.6,-936.88 2265.6,-942.13"/>
<text xml:space="preserve" text-anchor="middle" x="2208.38" y="-972.15" font-family="Sans-Serif" font-size="13.00" fill="#2d3436">1.7a gRPC</text>
</g>
<!-- b89fb19680004acbb7fbacb8b04298d3 -->
<g id="node24" class="node">
<title>b89fb19680004acbb7fbacb8b04298d3</title>
<image xlink:href="C:\Users\Hi\AppData\Roaming\Python\Python314\site-packages\resources/k8s/compute\pod.png" width="100.8px" height="100.8px" preserveAspectRatio="xMinYMin meet" x="2276" y="-759.8"/>
<text xml:space="preserve" text-anchor="middle" x="2326.4" y="-612.4" font-family="Helvetica,sans-Serif" font-weight="bold" font-size="14.00" fill="#2d3436">checkout</text>
<text xml:space="preserve" text-anchor="middle" x="2326.4" y="-596.65" font-family="Helvetica,sans-Serif" font-weight="bold" font-size="14.00" fill="#2d3436">:5050</text>
</g>
<!-- c5a0392578854fab83742b10a4c82caf&#45;&gt;b89fb19680004acbb7fbacb8b04298d3 -->
<!-- c5a0392578854fab83742b10a4c82caf&#45;&gt;b89fb19680004acbb7fbacb8b04298d3 -->
<g id="edge24" class="edge">
<title>c5a0392578854fab83742b10a4c82caf&#45;&gt;b89fb19680004acbb7fbacb8b04298d3</title>
<path fill="none" stroke="#6f42c1" stroke-width="2" d="M2089.9,-781.34C2089.9,-763.06 2089.9,-749 2089.9,-749 2089.9,-749 2265.72,-749 2265.72,-749"/>
<polygon fill="#6f42c1" stroke="#6f42c1" stroke-width="2" points="2265.72,-751.63 2273.22,-749 2265.72,-746.38 2265.72,-751.63"/>
<text xml:space="preserve" text-anchor="middle" x="2208.38" y="-795.15" font-family="Sans-Serif" font-size="13.00" fill="#2d3436">1.7b gRPC</text>
</g>
<!-- fdc866d58f8843e2bef6e608bc39602a -->
<g id="node25" class="node">
<title>fdc866d58f8843e2bef6e608bc39602a</title>
<image xlink:href="C:\Users\Hi\AppData\Roaming\Python\Python314\site-packages\resources/k8s/compute\pod.png" width="100.8px" height="100.8px" preserveAspectRatio="xMinYMin meet" x="2544.3" y="-759.8"/>
<text xml:space="preserve" text-anchor="middle" x="2594.7" y="-612.4" font-family="Helvetica,sans-Serif" font-weight="bold" font-size="14.00" fill="#2d3436">cartservice</text>
<text xml:space="preserve" text-anchor="middle" x="2594.7" y="-596.65" font-family="Helvetica,sans-Serif" font-weight="bold" font-size="14.00" fill="#2d3436">:7070</text>
</g>
<!-- c5a0392578854fab83742b10a4c82caf&#45;&gt;fdc866d58f8843e2bef6e608bc39602a -->
<g id="edge25" class="edge">
<title>c5a0392578854fab83742b10a4c82caf&#45;&gt;fdc866d58f8843e2bef6e608bc39602a</title>
<path fill="none" stroke="#6f42c1" stroke-width="2" d="M2140.57,-856.7C2268.19,-856.7 2594.9,-856.7 2594.9,-856.7 2594.9,-856.7 2594.9,-770.28 2594.9,-770.28"/>
<polygon fill="#6f42c1" stroke="#6f42c1" stroke-width="2" points="2597.53,-770.28 2594.9,-762.78 2592.28,-770.28 2597.53,-770.28"/>
<text xml:space="preserve" text-anchor="middle" x="2326.4" y="-868.15" font-family="Sans-Serif" font-size="13.00" fill="#2d3436">1.7c gRPC</text>
</g>
<!-- 0baf22669ee94bf999d9adc579f7c72a -->
<g id="node27" class="node">
<title>0baf22669ee94bf999d9adc579f7c72a</title>
<image xlink:href="C:\Users\Hi\AppData\Roaming\Python\Python314\site-packages\resources/onprem/monitoring\prometheus.png" width="100.8px" height="100.8px" preserveAspectRatio="xMinYMin meet" x="56" y="-880.4"/>
<text xml:space="preserve" text-anchor="middle" x="106.4" y="-746.05" font-family="Helvetica,sans-Serif" font-weight="bold" font-size="14.00" fill="#2d3436">Prometheus</text>
</g>
<!-- c5a0392578854fab83742b10a4c82caf&#45;&gt;0baf22669ee94bf999d9adc579f7c72a -->
<g id="edge39" class="edge">
<title>c5a0392578854fab83742b10a4c82caf&#45;&gt;0baf22669ee94bf999d9adc579f7c72a</title>
<path fill="none" stroke="#f1620e" stroke-width="2" stroke-dasharray="1,5" d="M2064.9,-781.61C2064.9,-748.5 2064.9,-718 2064.9,-718 2064.9,-718 105.9,-718 105.9,-718 105.9,-718 105.9,-733.16 105.9,-733.16"/>
<polygon fill="#f1620e" stroke="#f1620e" stroke-width="2" points="103.28,-733.16 105.9,-740.66 108.53,-733.16 103.28,-733.16"/>
<text xml:space="preserve" text-anchor="middle" x="1119.15" y="-825.15" font-family="Sans-Serif" font-size="13.00" fill="#2d3436">3.3 metrics</text>
</g>
<!-- b89fb19680004acbb7fbacb8b04298d3&#45;&gt;7b7d55f715564132a30614e685603199 -->
<g id="edge27" class="edge">
<title>b89fb19680004acbb7fbacb8b04298d3&#45;&gt;7b7d55f715564132a30614e685603199</title>
<path fill="none" stroke="#6f42c1" stroke-width="2" stroke-dasharray="1,5" d="M2325.9,-759.68C2325.9,-759.68 2325.9,-921.76 2325.9,-921.76"/>
<polygon fill="#6f42c1" stroke="#6f42c1" stroke-width="2" points="2323.28,-921.76 2325.9,-929.26 2328.53,-921.76 2323.28,-921.76"/>
<text xml:space="preserve" text-anchor="middle" x="2208.38" y="-830.9" font-family="Sans-Serif" font-size="13.00" fill="#2d3436">1.8b gRPC</text>
</g>
<!-- b89fb19680004acbb7fbacb8b04298d3&#45;&gt;fdc866d58f8843e2bef6e608bc39602a -->
<!-- b89fb19680004acbb7fbacb8b04298d3&#45;&gt;fdc866d58f8843e2bef6e608bc39602a -->
<g id="edge26" class="edge">
<title>b89fb19680004acbb7fbacb8b04298d3&#45;&gt;fdc866d58f8843e2bef6e608bc39602a</title>
<path fill="none" stroke="#6f42c1" stroke-width="2" d="M2376.55,-704.6C2376.55,-704.6 2533.81,-704.6 2533.81,-704.6"/>
<polygon fill="#6f42c1" stroke="#6f42c1" stroke-width="2" points="2533.81,-707.23 2541.31,-704.6 2533.81,-701.98 2533.81,-707.23"/>
<text xml:space="preserve" text-anchor="middle" x="2460.55" y="-658.15" font-family="Sans-Serif" font-size="13.00" fill="#2d3436">1.8a gRPC</text>
</g>
<!-- d5a6814a1f7242a7b3d363cd294a8f86 -->
<g id="node26" class="node">
<title>d5a6814a1f7242a7b3d363cd294a8f86</title>
<image xlink:href="C:\Users\Hi\AppData\Roaming\Python\Python314\site-packages\resources/onprem/inmemory\redis.png" width="100.8px" height="100.8px" preserveAspectRatio="xMinYMin meet" x="2799.85" y="-759.8"/>
<text xml:space="preserve" text-anchor="middle" x="2850.25" y="-612.4" font-family="Helvetica,sans-Serif" font-weight="bold" font-size="14.00" fill="#2d3436">Redis</text>
<text xml:space="preserve" text-anchor="middle" x="2850.25" y="-596.65" font-family="Helvetica,sans-Serif" font-weight="bold" font-size="14.00" fill="#2d3436">cart store</text>
</g>
<!-- fdc866d58f8843e2bef6e608bc39602a&#45;&gt;d5a6814a1f7242a7b3d363cd294a8f86 -->
<!-- fdc866d58f8843e2bef6e608bc39602a&#45;&gt;d5a6814a1f7242a7b3d363cd294a8f86 -->
<g id="edge28" class="edge">
<title>fdc866d58f8843e2bef6e608bc39602a&#45;&gt;d5a6814a1f7242a7b3d363cd294a8f86</title>
<path fill="none" stroke="#6f42c1" stroke-width="2" stroke-dasharray="5,2" d="M2644.88,-649.4C2644.88,-649.4 2789.65,-649.4 2789.65,-649.4"/>
<polygon fill="#6f42c1" stroke="#6f42c1" stroke-width="2" points="2789.65,-652.03 2797.15,-649.4 2789.65,-646.78 2789.65,-652.03"/>
<text xml:space="preserve" text-anchor="middle" x="2722.48" y="-739.15" font-family="Sans-Serif" font-size="13.00" fill="#2d3436">1.9 TCP :6379</text>
</g>
<!-- 3a7cff20524841739e6b531db5ca1b44 -->
<g id="node30" class="node">
<title>3a7cff20524841739e6b531db5ca1b44</title>
<image xlink:href="C:\Users\Hi\AppData\Roaming\Python\Python314\site-packages\resources/aws/database\rds.png" width="100.8px" height="100.8px" preserveAspectRatio="xMinYMin meet" x="3087.38" y="-759.8"/>
<text xml:space="preserve" text-anchor="middle" x="3137.78" y="-612.4" font-family="Helvetica,sans-Serif" font-weight="bold" font-size="14.00" fill="#2d3436">RDS PostgreSQL 16</text>
<text xml:space="preserve" text-anchor="middle" x="3137.78" y="-596.65" font-family="Helvetica,sans-Serif" font-weight="bold" font-size="14.00" fill="#2d3436">platform DB</text>
</g>
<!-- d5a6814a1f7242a7b3d363cd294a8f86&#45;&gt;3a7cff20524841739e6b531db5ca1b44 -->
<!-- f4fe6ba69ad44d37820e53e79d070868 -->
<g id="node28" class="node">
<title>f4fe6ba69ad44d37820e53e79d070868</title>
<image xlink:href="C:\Users\Hi\AppData\Roaming\Python\Python314\site-packages\resources/onprem/monitoring\grafana.png" width="100.8px" height="104.533px" preserveAspectRatio="xMinYMin meet" x="314.55" y="-880.4"/>
<text xml:space="preserve" text-anchor="middle" x="364.95" y="-746.05" font-family="Helvetica,sans-Serif" font-weight="bold" font-size="14.00" fill="#2d3436">Grafana</text>
</g>
<!-- 0baf22669ee94bf999d9adc579f7c72a&#45;&gt;f4fe6ba69ad44d37820e53e79d070868 -->
<g id="edge40" class="edge">
<title>0baf22669ee94bf999d9adc579f7c72a&#45;&gt;f4fe6ba69ad44d37820e53e79d070868</title>
<path fill="none" stroke="#f1620e" stroke-width="2" d="M156.56,-812C156.56,-812 304.4,-812 304.4,-812"/>
<polygon fill="#f1620e" stroke="#f1620e" stroke-width="2" points="304.4,-814.63 311.9,-812 304.4,-809.38 304.4,-814.63"/>
<text xml:space="preserve" text-anchor="middle" x="235.68" y="-816.15" font-family="Sans-Serif" font-size="13.00" fill="#2d3436">3.4 dashboard</text>
</g>
<!-- aa446e98c213452b8e23d8b148cc1a4c -->
<g id="node29" class="node">
<title>aa446e98c213452b8e23d8b148cc1a4c</title>
<image xlink:href="C:\Users\Hi\AppData\Roaming\Python\Python314\site-packages\resources/k8s/compute\pod.png" width="100.8px" height="100.8px" preserveAspectRatio="xMinYMin meet" x="56" y="-1097.8"/>
<text xml:space="preserve" text-anchor="middle" x="106.4" y="-950.4" font-family="Helvetica,sans-Serif" font-weight="bold" font-size="14.00" fill="#2d3436">OTel Collector</text>
<text xml:space="preserve" text-anchor="middle" x="106.4" y="-934.65" font-family="Helvetica,sans-Serif" font-weight="bold" font-size="14.00" fill="#2d3436">planned</text>
</g>
<!-- 3a7cff20524841739e6b531db5ca1b44&#45;&gt;1be39979d51240cab9946ead1e08188c -->
<g id="edge41" class="edge">
<title>3a7cff20524841739e6b531db5ca1b44&#45;&gt;1be39979d51240cab9946ead1e08188c</title>
<path fill="none" stroke="#f1620e" stroke-width="2" stroke-dasharray="1,5" d="M3137.9,-594.37C3137.9,-446.05 3137.9,-150 3137.9,-150 3137.9,-150 1886.56,-150 1886.56,-150"/>
<polygon fill="#f1620e" stroke="#f1620e" stroke-width="2" points="1886.56,-147.38 1879.06,-150 1886.56,-152.63 1886.56,-147.38"/>
<text xml:space="preserve" text-anchor="middle" x="2460.55" y="-1407.15" font-family="Sans-Serif" font-size="13.00" fill="#2d3436">3.5 RDS metrics</text>
</g>
<!-- 8109dfc7e8ec450189bb4e32ca9c8e13&#45;&gt;0e3a96ce16844287964ec3001de3aea0 -->
<g id="edge18" class="edge">
<title>8109dfc7e8ec450189bb4e32ca9c8e13&#45;&gt;0e3a96ce16844287964ec3001de3aea0</title>
<path fill="none" stroke="#1f6feb" stroke-width="2.8" d="M553.97,-1679.4C657.47,-1679.4 884.9,-1679.4 884.9,-1679.4 884.9,-1679.4 884.9,-1396.09 884.9,-1396.09"/>
<polygon fill="#1f6feb" stroke="#1f6feb" stroke-width="2.8" points="887.53,-1396.09 884.9,-1388.59 882.28,-1396.09 887.53,-1396.09"/>
<text xml:space="preserve" text-anchor="middle" x="642.55" y="-1668.15" font-family="Sans-Serif" font-size="13.00" fill="#2d3436">1.2 public route</text>
</g>
</g>
</svg>
